<svg xmlns="http://www.w3.org/2000/svg" viewBox="0 0 24 24"><style>.st0{fill:#fff}</style><g id="XMLID_1_"><g id="XMLID_68_"><g id="rect3009_9_"><path id="XMLID_72_" class="st0" d="M11.2 22.9H2.7c-.2 0-.3-.2-.3-.3V1.5c0-.2.2-.3.3-.3h8.4c.2 0 .3.2.3.3v21.1c.1.1-.1.3-.2.3zm-6.9-1.5h5.4c.2 0 .3-.2.3-.3V3c0-.2-.2-.3-.3-.3H4.3c-.2-.1-.4.1-.4.3v18c0 .2.2.4.4.4z"/></g><g id="path3785_9_"><path id="XMLID_69_" class="st0" d="M11.2 22.9H2.7c-.2 0-.3-.2-.3-.3v-4.2c0-3.4 1-6.2 2.9-8.5C6.9 8 9 6.5 11.7 5.4c2.4-.9 4.7-1.4 6.3-1.6 1.7-.2 2.8-.2 2.9-.2h.4c.2 0 .3.2.3.3v8.4c0 .2-.2.3-.3.3h-.4s-2.5 0-4.9.8c-3 .9-4.5 2.6-4.5 4.8v4.2c0 .3-.2.5-.3.5zm-6.9-1.5h5.4c.2 0 .3-.2.3-.3v-2.7c0-1.7.6-3.1 1.8-4.2.9-.9 2.2-1.6 3.8-2 1.6-.5 3.2-.7 4.2-.8.2 0 .3-.2.3-.3V5.6c0-.2-.2-.4-.4-.3-1.6.1-4.5.5-7.5 1.6-5.5 2.2-8.3 6-8.3 11.4V21c0 .2.2.4.4.4z"/></g></g></g></svg>