<svg xmlns="http://www.w3.org/2000/svg" viewBox="0 0 96 96">
	<style>
		.st1{fill:#7591a1}.st2{fill:#172024}.st3{fill:none;stroke:#172024;stroke-miterlimit:10}
	</style>
	<linearGradient id="XMLID_9_" gradientUnits="userSpaceOnUse" x1="48" y1="10.5" x2="48" y2="85.5">
		<stop offset="0" stop-color="#e8edef"/>
		<stop offset="1" stop-color="#cfdce5"/>
	</linearGradient>
	<path d="M33 11.7l-12.4 13c-.7.7-1.1 1.7-1.1 2.8v54c0 2.2 1.8 4 4 4h49c2.2 0 4-1.8 4-4v-67c0-2.2-1.8-4-4-4H35.9c-1.1 0-2.2.4-2.9 1.2z" fill="url(#XMLID_9_)" stroke="#000" stroke-miterlimit="10"/>
	<path class="st1" d="M37.9 77.9H27.8c-.2 0-.4-.2-.4-.4V52.1c0-.2.2-.4.4-.4h10.1c.2 0 .4.2.4.4v25.3c0 .3-.1.5-.4.5z"/>
	<path class="st1" d="M38.6 56.9c2.8-1.1 5.7-1.6 7.5-1.9 2-.3 3.4-.3 3.4-.3h.5c.2 0 .4.2.4.4v10.1c0 .2-.2.4-.4.4h-.5s-3 0-5.8.9c-3.6 1.1-5.4 3.1-5.4 5.8v5.1c0 .2-.2.4-.4.4H27.8c-.2 0-.4-.2-.4-.4v-5.1"/>
	<path class="st2" d="M37.9 77.9H27.8c-.2 0-.4-.2-.4-.4V52.1c0-.2.2-.4.4-.4h10.1c.2 0 .4.2.4.4v25.3c0 .3-.1.5-.4.5zM29.6 76h6.5c.2 0 .4-.2.4-.4V54c0-.2-.2-.4-.4-.4h-6.5c-.2 0-.4.2-.4.4v21.7c0 .2.2.3.4.3z"/>
	<path class="st2" d="M37.9 77.9H27.8c-.2 0-.4-.2-.4-.4v-5.1c0-4 1.2-7.5 3.5-10.3 1.9-2.2 4.4-4 7.7-5.2 2.8-1.1 5.7-1.6 7.5-1.9 2-.3 3.4-.3 3.4-.3h.5c.2 0 .4.2.4.4v10.1c0 .2-.2.4-.4.4h-.5s-3 0-5.8.9c-3.6 1.1-5.4 3.1-5.4 5.8v5.1c0 .3-.1.5-.4.5zM29.6 76h6.5c.2 0 .4-.2.4-.4v-3.2c0-2 .7-3.7 2.2-5.1 1.1-1 2.6-1.9 4.5-2.5 1.9-.6 3.8-.8 5.1-.9.2 0 .4-.2.4-.4V57c0-.2-.2-.4-.4-.4-1.9.1-5.5.6-9 2-6.6 2.6-10 7.3-10 13.8v3.2c-.1.3.1.4.3.4z"/>
	<path class="st3" d="M33 11.7l-12.4 13c-.7.7-1.1 1.7-1.1 2.8v54c0 2.2 1.8 4 4 4h49c2.2 0 4-1.8 4-4v-67c0-2.2-1.8-4-4-4H35.9c-1.1 0-2.2.4-2.9 1.2z"/>
	<path class="st3" d="M34 11.1V22c0 2.1-1.8 3.8-4 3.8H19.7"/>
</svg>