<svg xmlns="http://www.w3.org/2000/svg" viewBox="0 0 16 16" opacity=".5"><style>.st2{fill:#000}.st4{fill:none;stroke:#000;stroke-miterlimit:10;stroke-width:1.5}</style><path class="st2" d="M5.5 5.7H2c-.1 0-.3-.1-.3-.3V2c0-.1.1-.3.3-.3h3.5c.1 0 .3.1.3.3v3.5c-.1.1-.2.2-.3.2z"/><path class="st2" d="M14 9.5h-3.5c-.1 0-.3-.1-.3-.3V5.8c0-.1.1-.3.3-.3H14c.1 0 .3.1.3.3v3.5c0 .1-.1.2-.3.2z"/><path class="st2" d="M8.7 14.3H5.2c-.1 0-.3-.1-.3-.3v-3.5c0-.1.1-.3.3-.3h3.5c.1 0 .3.1.3.3V14c-.1.2-.2.3-.3.3z"/><path class="st4" d="M12.3 7.5c0-2.1-3.8-3.8-8.5-3.8"/><path class="st4" d="M6.9 12.3c0-2.6 2.4-4.8 5.3-4.8"/></svg>