<svg xmlns="http://www.w3.org/2000/svg" viewBox="0 0 16 16" opacity=".5"><style>.st2{opacity:.5;fill:#fff}.st4{fill:none;stroke:#fff;stroke-miterlimit:10;stroke-width:2}</style><path class="st2" d="M5.2 5.5h-3c-.1 0-.2-.1-.2-.3v-3c0-.1.1-.2.3-.2h3c.1 0 .3.1.3.3v3c-.1.1-.2.2-.4.2z"/><path class="st2" d="M13.8 9.2h-3c-.1 0-.3-.1-.3-.3V6c0-.1.1-.3.3-.3h3c.1.1.2.2.2.3v3c0 .1-.1.2-.2.2z"/><path class="st2" d="M8.4 14h-3c-.1 0-.3-.1-.3-.3v-3c0-.1.1-.3.3-.3h3c.1 0 .3.1.3.3v3c0 .2-.2.3-.3.3z"/><path class="st4" d="M13 3L3 13"/><path class="st4" d="M3 3l10 10"/></svg>